<svg id="Layer_1" data-name="Layer 1" xmlns="http://www.w3.org/2000/svg" viewBox="0 0 342.9 143.1"><defs><style>.cls-1{fill:none;}.cls-2{fill:#322f44;}.cls-3{fill:#272742;}.cls-4{fill:#a0d7ea;}</style></defs><title>logo</title><rect class="cls-1" width="342.9" height="143.1"/><path class="cls-2" d="M15.91,102.24h5.61v1.21H17.29V106H21v1.18H17.29v2.63H21.7v1.21H15.91ZM19.08,99h1.5l-1.27,2.46h-1Z"/><path class="cls-2" d="M23.39,108.33a2.8,2.8,0,0,1,2.9-2.84,2.61,2.61,0,0,1,2.21,1l-.94.75A1.63,1.63,0,1,0,26.29,110a1.66,1.66,0,0,0,1.34-.61l.89.78a2.71,2.71,0,0,1-2.23,1A2.79,2.79,0,0,1,23.39,108.33Z"/><path class="cls-2" d="M30.05,108.33A2.94,2.94,0,1,1,33,111.17,2.85,2.85,0,0,1,30.05,108.33Zm4.53,0a1.59,1.59,0,1,0-3.18,0,1.59,1.59,0,1,0,3.18,0Z"/><path class="cls-2" d="M38,101.7H39.3v9.36H38Z"/><path class="cls-2" d="M44.42,110.07a2.24,2.24,0,0,0,1.55-.58l.76.8a3,3,0,0,1-2.29.88,2.85,2.85,0,1,1-.17-5.68c1.85,0,2.9,1.38,2.81,3.28H42.7A1.58,1.58,0,0,0,44.42,110.07Zm1.34-2.2a1.39,1.39,0,0,0-1.48-1.29,1.5,1.5,0,0,0-1.58,1.29Z"/><path class="cls-2" d="M52.13,109.34l1.13-.62a2.17,2.17,0,0,0,2,1.23c.9,0,1.53-.48,1.53-1.2s-.52-1.1-1.48-1.53l-.58-.26c-1.28-.57-2.06-1.22-2.06-2.58a2.26,2.26,0,0,1,2.47-2.24,2.6,2.6,0,0,1,2.49,1.38l-1.07.66a1.47,1.47,0,0,0-1.42-.85,1,1,0,0,0-1.14,1c0,.66.38,1,1.27,1.35l.58.26c1.5.66,2.3,1.36,2.3,2.77s-1.2,2.44-2.86,2.44A3.33,3.33,0,0,1,52.13,109.34Z"/><path class="cls-2" d="M60.17,108.85v-3.24h1.31v3.14c0,.78.37,1.23,1.13,1.23A1.29,1.29,0,0,0,64,108.57v-3h1.31v5.45H64l0-1a1.93,1.93,0,0,1-1.82,1.11C61,111.17,60.17,110.33,60.17,108.85Z"/><path class="cls-2" d="M67.59,105.61h1.32l0,1a2.06,2.06,0,0,1,1.93-1.13,2.64,2.64,0,0,1,2.53,2.83,2.67,2.67,0,0,1-2.56,2.85,2,2,0,0,1-1.87-1v3.68H67.59Zm4.4,2.71a1.51,1.51,0,0,0-1.54-1.66,1.54,1.54,0,0,0-1.59,1.66,1.55,1.55,0,0,0,1.59,1.7A1.53,1.53,0,0,0,72,108.32Z"/><path class="cls-2" d="M78.15,110.07a2.23,2.23,0,0,0,1.54-.58l.77.8a3.05,3.05,0,0,1-2.3.88,2.84,2.84,0,1,1-.17-5.68c1.86,0,2.91,1.38,2.82,3.28H76.43A1.57,1.57,0,0,0,78.15,110.07Zm1.34-2.2A1.4,1.4,0,0,0,78,106.58a1.49,1.49,0,0,0-1.58,1.29Zm-1.26-5.75h1.5l-1.27,2.47h-1Z"/><path class="cls-2" d="M82.82,105.61h1.31v1a1.64,1.64,0,0,1,1.58-1.12,1.62,1.62,0,0,1,.89.23l-.44,1.18a1.49,1.49,0,0,0-.71-.18c-.78,0-1.31.45-1.31,1.67v2.65H82.82Z"/><path class="cls-2" d="M88.11,103.5a.87.87,0,0,1,1.74,0,.87.87,0,1,1-1.74,0Zm.21,2.11h1.32v5.45H88.32Z"/><path class="cls-2" d="M94.75,110.07a2.24,2.24,0,0,0,1.55-.58l.76.8a3,3,0,0,1-2.29.88,2.85,2.85,0,1,1-.17-5.68c1.85,0,2.9,1.38,2.81,3.28H93A1.58,1.58,0,0,0,94.75,110.07Zm1.34-2.2a1.39,1.39,0,0,0-1.48-1.29A1.5,1.5,0,0,0,93,107.87Z"/><path class="cls-2" d="M99.37,108.85v-3.24h1.31v3.14c0,.78.36,1.23,1.13,1.23a1.29,1.29,0,0,0,1.39-1.41v-3h1.31v5.45H103.2l0-1a1.93,1.93,0,0,1-1.82,1.11C100.2,111.17,99.37,110.33,99.37,108.85Z"/><path class="cls-2" d="M106.79,105.61h1.31v1a1.64,1.64,0,0,1,1.58-1.12,1.68,1.68,0,0,1,.9.23l-.45,1.18a1.49,1.49,0,0,0-.71-.18c-.78,0-1.31.45-1.31,1.67v2.65h-1.31Z"/><path class="cls-2" d="M114.85,110.07a2.23,2.23,0,0,0,1.54-.58l.76.8a3,3,0,0,1-2.29.88,2.84,2.84,0,1,1-.17-5.68c1.85,0,2.9,1.38,2.81,3.28h-4.38A1.58,1.58,0,0,0,114.85,110.07Zm1.33-2.2a1.39,1.39,0,0,0-1.48-1.29,1.5,1.5,0,0,0-1.58,1.29Z"/><path class="cls-2" d="M122.85,108.32a2.64,2.64,0,0,1,2.53-2.83,2,2,0,0,1,1.89,1.07V101.7h1.32v9.36h-1.32l0-1a2,2,0,0,1-1.91,1.1A2.66,2.66,0,0,1,122.85,108.32Zm4.47,0a1.53,1.53,0,0,0-1.58-1.66,1.51,1.51,0,0,0-1.54,1.66,1.53,1.53,0,0,0,1.54,1.7A1.55,1.55,0,0,0,127.32,108.32Z"/><path class="cls-2" d="M133.67,110.07a2.23,2.23,0,0,0,1.54-.58l.77.8a3.05,3.05,0,0,1-2.3.88,2.84,2.84,0,1,1-.17-5.68c1.86,0,2.91,1.38,2.82,3.28h-4.39A1.58,1.58,0,0,0,133.67,110.07Zm1.33-2.2a1.38,1.38,0,0,0-1.47-1.29,1.51,1.51,0,0,0-1.59,1.29Z"/><path class="cls-2" d="M137.78,110l.9-.62a1.67,1.67,0,0,0,1.46.7c.66,0,1-.22,1-.58s-.4-.51-1.32-.77-1.61-.59-1.61-1.67.87-1.61,1.94-1.61a2.51,2.51,0,0,1,1.9.82l-.77.75a1.46,1.46,0,0,0-1.13-.53c-.49,0-.76.18-.76.51s.34.5,1.19.72,1.79.56,1.79,1.71c0,.94-.57,1.7-2.11,1.7A2.76,2.76,0,0,1,137.78,110Z"/><path class="cls-2" d="M150.08,103.45h-2.62v-1.21h6.6v1.21h-2.62v7.61h-1.36Z"/><path class="cls-2" d="M157.09,110.07a2.24,2.24,0,0,0,1.55-.58l.76.8a3,3,0,0,1-2.29.88,2.85,2.85,0,1,1-.17-5.68c1.85,0,2.9,1.38,2.81,3.28h-4.38A1.58,1.58,0,0,0,157.09,110.07Zm1.34-2.2a1.39,1.39,0,0,0-1.48-1.29,1.5,1.5,0,0,0-1.58,1.29Z"/><path class="cls-2" d="M161.49,108.33a2.81,2.81,0,0,1,2.91-2.84,2.61,2.61,0,0,1,2.2,1l-.93.75A1.63,1.63,0,1,0,164.4,110a1.66,1.66,0,0,0,1.33-.61l.9.78a2.71,2.71,0,0,1-2.23,1A2.8,2.8,0,0,1,161.49,108.33Z"/><path class="cls-2" d="M168.5,101.7h1.31v4.87a2,2,0,0,1,1.81-1.08c1.21,0,2,.86,2,2.34v3.23h-1.31v-3.13c0-.78-.37-1.23-1.13-1.23a1.3,1.3,0,0,0-1.41,1.4v3H168.5Z"/><path class="cls-2" d="M175.89,105.61h1.31l0,1a2,2,0,0,1,1.85-1.13c1.2,0,2,.86,2,2.34v3.23h-1.31v-3.13c0-.78-.36-1.23-1.13-1.23a1.31,1.31,0,0,0-1.41,1.4v3h-1.31Z"/><path class="cls-2" d="M183,108.33a2.94,2.94,0,1,1,3,2.84A2.85,2.85,0,0,1,183,108.33Zm4.53,0a1.59,1.59,0,1,0-3.18,0,1.59,1.59,0,1,0,3.18,0Z"/><path class="cls-2" d="M191,101.7h1.31v9.36H191Z"/><path class="cls-2" d="M194.32,108.33a2.94,2.94,0,1,1,3,2.84A2.85,2.85,0,0,1,194.32,108.33Zm4.53,0a1.59,1.59,0,1,0-3.18,0,1.59,1.59,0,1,0,3.18,0Z"/><path class="cls-2" d="M202,112.51l.94-.7a2.08,2.08,0,0,0,1.83,1c1,0,1.58-.54,1.58-1.76v-.95a2,2,0,0,1-1.88,1,2.86,2.86,0,0,1,0-5.68,2.07,2.07,0,0,1,1.94,1.13l0-1h1.31v5.52a2.55,2.55,0,0,1-2.82,2.8A3.15,3.15,0,0,1,202,112.51Zm4.39-4.19a1.53,1.53,0,0,0-1.58-1.66,1.5,1.5,0,0,0-1.54,1.66,1.52,1.52,0,0,0,1.54,1.7A1.55,1.55,0,0,0,206.42,108.32Z"/><path class="cls-2" d="M209.81,103.5a.87.87,0,1,1,.87.87A.86.86,0,0,1,209.81,103.5Zm.21,2.11h1.32v5.45H210Z"/><path class="cls-2" d="M216.45,110.07a2.23,2.23,0,0,0,1.54-.58l.77.8a3.05,3.05,0,0,1-2.3.88,2.84,2.84,0,1,1-.17-5.68c1.86,0,2.91,1.38,2.82,3.28h-4.38A1.57,1.57,0,0,0,216.45,110.07Zm1.34-2.2a1.39,1.39,0,0,0-1.48-1.29,1.49,1.49,0,0,0-1.58,1.29Z"/><path class="cls-2" d="M220.56,110l.9-.62a1.68,1.68,0,0,0,1.46.7c.66,0,1-.22,1-.58s-.4-.51-1.32-.77-1.61-.59-1.61-1.67.87-1.61,2-1.61a2.47,2.47,0,0,1,1.89.82l-.76.75a1.47,1.47,0,0,0-1.13-.53c-.49,0-.77.18-.77.51s.34.5,1.2.72,1.78.56,1.78,1.71c0,.94-.57,1.7-2.11,1.7A2.79,2.79,0,0,1,220.56,110Z"/><path class="cls-2" d="M230.4,108.32a2.64,2.64,0,0,1,2.52-2.83,2,2,0,0,1,1.9,1.07V101.7h1.32v9.36h-1.32l0-1a2,2,0,0,1-1.91,1.1A2.66,2.66,0,0,1,230.4,108.32Zm4.47,0a1.53,1.53,0,0,0-1.58-1.66,1.51,1.51,0,0,0-1.55,1.66,1.53,1.53,0,0,0,1.55,1.7A1.55,1.55,0,0,0,234.87,108.32Z"/><path class="cls-2" d="M241.21,110.07a2.26,2.26,0,0,0,1.55-.58l.76.8a3,3,0,0,1-2.29.88,2.85,2.85,0,1,1-.17-5.68c1.85,0,2.9,1.38,2.81,3.28h-4.38A1.57,1.57,0,0,0,241.21,110.07Zm1.34-2.2a1.39,1.39,0,0,0-1.48-1.29,1.5,1.5,0,0,0-1.58,1.29Z"/><path class="cls-2" d="M249.53,101.7h1.31v9.36h-1.31Z"/><path class="cls-2" d="M253.47,103.78A.83.83,0,0,1,253,103a.86.86,0,0,1,1.71,0,1.59,1.59,0,0,1-.27.82l-.75,1.39H253Z"/><path class="cls-2" d="M257,102.24h1.36v8.82H257Z"/><path class="cls-2" d="M260.85,105.61h1.31l0,1a2,2,0,0,1,1.84-1.13c1.2,0,2,.86,2,2.34v3.23H264.7v-3.13c0-.78-.36-1.23-1.12-1.23a1.31,1.31,0,0,0-1.42,1.4v3h-1.31Z"/><path class="cls-2" d="M268.67,106.71h-.89v-1.1h.89v-2.15c0-1.31.64-1.93,1.76-1.93a1.84,1.84,0,0,1,1.54.67l-.78.83a.77.77,0,0,0-.64-.32c-.33,0-.57.19-.57.74v2.16h1.47v1.1H270v4.35h-1.31Z"/><path class="cls-2" d="M272.92,108.33a2.94,2.94,0,1,1,2.94,2.84A2.84,2.84,0,0,1,272.92,108.33Zm4.52,0a1.59,1.59,0,1,0-3.18,0,1.59,1.59,0,1,0,3.18,0Z"/><path class="cls-2" d="M280.8,105.61h1.31v1a1.64,1.64,0,0,1,1.58-1.12,1.68,1.68,0,0,1,.9.23l-.44,1.18a1.56,1.56,0,0,0-.72-.18c-.78,0-1.31.45-1.31,1.67v2.65H280.8Z"/><path class="cls-2" d="M286.26,105.61h1.31l0,.93a1.78,1.78,0,0,1,1.62-1.05,1.6,1.6,0,0,1,1.59,1,2.19,2.19,0,0,1,1.87-1,2,2,0,0,1,2.05,2.25v3.32h-1.31v-3.19c0-.76-.27-1.17-1-1.17s-1.21.47-1.21,1.37v3h-1.31v-3.19c0-.76-.26-1.17-1-1.17s-1.24.47-1.24,1.37v3h-1.31Z"/><path class="cls-2" d="M299.12,106.58a1.77,1.77,0,0,0-1.43.65l-.75-.76a2.72,2.72,0,0,1,2.28-1,2.13,2.13,0,0,1,2.3,2.35v3.22h-1.31l0-.78a1.9,1.9,0,0,1-1.72.89c-1.07,0-1.95-.5-1.95-1.72s.9-1.62,2.14-1.64h1.49C300.21,107,299.82,106.58,299.12,106.58Zm-.31,2.14c-.57,0-.95.21-.95.69s.36.71,1,.71,1.31-.37,1.31-1v-.43Z"/><path class="cls-2" d="M304.1,109.21v-2.5h-.82v-1.1h.82v-2.1h1.31v2.1h1.45v1.1h-1.45v2.53c0,.64.21.82.54.82a1,1,0,0,0,.69-.29l.55.9a2,2,0,0,1-1.42.52C304.81,111.19,304.1,110.67,304.1,109.21Z"/><path class="cls-2" d="M308.72,103.5a.87.87,0,1,1,.87.87A.86.86,0,0,1,308.72,103.5Zm.21,2.11h1.32v5.45h-1.32Z"/><path class="cls-2" d="M312.3,108.33a2.94,2.94,0,1,1,2.94,2.84A2.84,2.84,0,0,1,312.3,108.33Zm4.52,0a1.59,1.59,0,1,0-3.17,0,1.59,1.59,0,1,0,3.17,0Z"/><path class="cls-2" d="M320.19,105.61h1.3l0,1a2,2,0,0,1,1.84-1.13c1.21,0,2,.86,2,2.34v3.23H324v-3.13c0-.78-.37-1.23-1.13-1.23a1.31,1.31,0,0,0-1.42,1.4v3h-1.3Z"/><path class="cls-3" d="M305.09,75.15V57.32h-5.82V49.47h5.82v-15h9.34v15h10.35v7.85H314.43v18c0,4.52,1.47,5.82,3.88,5.82a7.11,7.11,0,0,0,4.89-2l3.89,6.37A13.88,13.88,0,0,1,317,89.2C310.18,89.2,305.09,85.5,305.09,75.15Z"/><path class="cls-3" d="M285,53.47l8.31-12.67v48H285Z"/><polygon class="cls-4" points="282.07 30.07 241.61 91.53 241.35 91.92 244.03 93.69 284.49 32.23 284.75 31.83 282.07 30.07"/><path class="cls-3" d="M24.15,89.42H15.91V30.57h8.24Z"/><path class="cls-3" d="M149.51,50a19.92,19.92,0,0,1,7.92,1.57,21.17,21.17,0,0,1,6.48,4.27,20.21,20.21,0,0,1,4.39,6.36,19.36,19.36,0,0,1,1.61,7.89,19.66,19.66,0,0,1-1.61,7.93,19.9,19.9,0,0,1-4.39,6.39,20.65,20.65,0,0,1-6.52,4.27,20.19,20.19,0,0,1-8,1.57,19.92,19.92,0,0,1-7.92-1.57A20.7,20.7,0,0,1,135,84.44a19.35,19.35,0,0,1-4.36-6.39,20.15,20.15,0,0,1-1.57-7.93,19.85,19.85,0,0,1,1.57-7.89A19.65,19.65,0,0,1,135,55.87a21.07,21.07,0,0,1,6.51-4.27A20.27,20.27,0,0,1,149.51,50Zm0,7.53a11.79,11.79,0,0,0-4.83,1,11.13,11.13,0,0,0-3.8,2.66,12,12,0,0,0-2.44,4,14.33,14.33,0,0,0-.86,5,13.89,13.89,0,0,0,.86,4.94,11.69,11.69,0,0,0,2.47,4,11.55,11.55,0,0,0,3.77,2.63,11.71,11.71,0,0,0,4.75.94,12,12,0,0,0,4.79-.94A11.36,11.36,0,0,0,158,79.1a12.1,12.1,0,0,0,2.51-4,13.07,13.07,0,0,0,.9-4.94,13.48,13.48,0,0,0-.9-5,12.18,12.18,0,0,0-2.51-4,11.74,11.74,0,0,0-3.8-2.66A11.37,11.37,0,0,0,149.51,57.56Z"/><path class="cls-3" d="M188.26,89.42H180V30.57h8.23Z"/><path class="cls-3" d="M53.83,35.81l-2.39,7.95c5.42,2.09,11.33.38,16.16-4.45.43-.43.83-.86,1.2-1.31l-5.52-5.53a10,10,0,0,1-1.12,1.33A8.11,8.11,0,0,1,53.83,35.81Z"/><path class="cls-3" d="M29.27,40l3.95,7.35c5.34-2.37,8.31-7.77,8.31-14.64,0-.61,0-1.2-.07-1.79H33.61a10,10,0,0,1,.15,1.74A8.13,8.13,0,0,1,29.27,40Z"/><path class="cls-3" d="M76.87,60.66a16.52,16.52,0,0,0-9.34-9.3A19.05,19.05,0,0,0,60.39,50a19.41,19.41,0,0,0-7.85,1.57,20.55,20.55,0,0,0-6.32,4.27A19.57,19.57,0,0,0,42,62.27a20.49,20.49,0,0,0-1.54,7.93A20,20,0,0,0,42,78.12a19.27,19.27,0,0,0,10.9,10.64,22.53,22.53,0,0,0,8.32,1.52,21.3,21.3,0,0,0,8.48-1.64,23.27,23.27,0,0,0,6.9-4.56l-4-5.64a19.3,19.3,0,0,1-5.1,3.33A15,15,0,0,1,61.41,83q-.73,0-1.44-.06A11.71,11.71,0,0,1,54,81l-.14-.09-.44-.32-.36-.26a11,11,0,0,1-3.4-4.58A14.21,14.21,0,0,1,48.5,70c0-6.09,3.24-11.18,8.61-12.58l.06,0a12,12,0,0,1,3-.38v0a10.15,10.15,0,0,1,6.79,2.42,9.09,9.09,0,0,1,3,7H58.88l-2.77,6.43H77.57a14.7,14.7,0,0,0,.43-2.2,20.14,20.14,0,0,0,.2-3A18.32,18.32,0,0,0,76.87,60.66Z"/><path class="cls-3" d="M235,60.66a16.52,16.52,0,0,0-9.34-9.3A19.05,19.05,0,0,0,218.47,50a19.41,19.41,0,0,0-7.85,1.57,20.55,20.55,0,0,0-6.32,4.27,19.73,19.73,0,0,0-4.23,6.4,20.48,20.48,0,0,0-1.53,7.93,20,20,0,0,0,1.57,7.92A19.27,19.27,0,0,0,211,88.76a22.53,22.53,0,0,0,8.32,1.52,21.3,21.3,0,0,0,8.48-1.64,23.27,23.27,0,0,0,6.9-4.56l-4-5.64a19.3,19.3,0,0,1-5.1,3.33A15,15,0,0,1,219.49,83q-.74,0-1.44-.06A11.71,11.71,0,0,1,212.11,81L212,80.9l-.44-.32-.36-.26a11,11,0,0,1-3.4-4.58A14.21,14.21,0,0,1,206.58,70c0-6.09,3.24-11.18,8.61-12.58l.06,0a12,12,0,0,1,3-.38v0A10.15,10.15,0,0,1,225,59.44a9.09,9.09,0,0,1,3,7H217l-4.89,6.43h23.58a14.7,14.7,0,0,0,.43-2.2,20.14,20.14,0,0,0,.2-3A18.32,18.32,0,0,0,235,60.66Z"/><path class="cls-3" d="M106.36,57.65a10.74,10.74,0,0,1,6,1.6,17.09,17.09,0,0,1,4.44,4.28L122.61,59a19.16,19.16,0,0,0-6.67-6.51A18.81,18.81,0,0,0,106.28,50a20.22,20.22,0,0,0-8,1.57,21,21,0,0,0-3,1.59l6.27,5.43A11.93,11.93,0,0,1,106.36,57.65Z"/><path class="cls-3" d="M112.33,81.1a10.77,10.77,0,0,1-6,1.57,12.26,12.26,0,0,1-4.82-.94,10.83,10.83,0,0,1-3.81-2.63,12.31,12.31,0,0,1-2.47-4,13.6,13.6,0,0,1-.9-5,13.3,13.3,0,0,1,.56-3.86l-.13.15L88.2,60.7c-.27.5-.52,1-.75,1.53a19.67,19.67,0,0,0-1.57,7.89,20,20,0,0,0,1.57,7.93,19.35,19.35,0,0,0,4.36,6.39,20.49,20.49,0,0,0,6.51,4.27,20.22,20.22,0,0,0,8,1.57,18.64,18.64,0,0,0,9.58-2.43,19,19,0,0,0,6.67-6.51l-5.81-4.48A16.73,16.73,0,0,1,112.33,81.1Z"/></svg>